<mxfile host="app.diagrams.net" modified="2023-01-31T22:26:52.607Z" agent="5.0 (Windows NT 10.0; Win64; x64) AppleWebKit/537.36 (KHTML, like Gecko) Chrome/109.0.0.0 Safari/537.36" etag="PeLdXnLrC1EdTVZmoJCH" version="20.8.4" type="github">
  <diagram id="gaHBtOEv4GBkI7CgQ-Mk" name="第 1 页">
    <mxGraphModel dx="904" dy="461" grid="1" gridSize="10" guides="1" tooltips="1" connect="1" arrows="1" fold="1" page="1" pageScale="1" pageWidth="600" pageHeight="400" math="0" shadow="0">
      <root>
        <mxCell id="0" />
        <mxCell id="1" parent="0" />
        <mxCell id="OfvR7jmP5WtNh5RsgEb_-9" value="&lt;p style=&quot;line-height: 0%;&quot;&gt;&lt;font face=&quot;Comic Sans MS&quot; style=&quot;font-size: 11px;&quot;&gt;A set of items&lt;/font&gt;&lt;/p&gt;" style="text;strokeColor=none;align=center;fillColor=none;html=1;verticalAlign=middle;whiteSpace=wrap;rounded=0;dashed=1;" parent="1" vertex="1">
          <mxGeometry x="84" y="23.5" width="90" height="30" as="geometry" />
        </mxCell>
        <mxCell id="OfvR7jmP5WtNh5RsgEb_-10" value="&lt;p style=&quot;line-height: 0%;&quot;&gt;&lt;font face=&quot;Comic Sans MS&quot; style=&quot;font-size: 11px;&quot;&gt;Basket&lt;/font&gt;&lt;/p&gt;&lt;p style=&quot;line-height: 0%;&quot;&gt;&lt;font face=&quot;Comic Sans MS&quot; style=&quot;font-size: 11px;&quot;&gt;sequence&lt;/font&gt;&lt;/p&gt;" style="text;strokeColor=none;align=center;fillColor=none;html=1;verticalAlign=middle;whiteSpace=wrap;rounded=0;dashed=1;" parent="1" vertex="1">
          <mxGeometry x="41" y="71" width="60" height="30" as="geometry" />
        </mxCell>
        <mxCell id="OfvR7jmP5WtNh5RsgEb_-11" value="" style="endArrow=classic;html=1;rounded=0;fontFamily=Comic Sans MS;fontSize=11;" parent="1" edge="1">
          <mxGeometry width="50" height="50" relative="1" as="geometry">
            <mxPoint x="126" y="129" as="sourcePoint" />
            <mxPoint x="126" y="149" as="targetPoint" />
            <Array as="points" />
          </mxGeometry>
        </mxCell>
        <mxCell id="OfvR7jmP5WtNh5RsgEb_-19" value="" style="group;fillColor=#d5e8d4;strokeColor=#82b366;" parent="1" vertex="1" connectable="0">
          <mxGeometry x="106.5" y="153" width="40" height="20" as="geometry" />
        </mxCell>
        <mxCell id="OfvR7jmP5WtNh5RsgEb_-17" value="" style="rounded=0;whiteSpace=wrap;html=1;fontFamily=Comic Sans MS;fontSize=11;fillColor=#d5e8d4;strokeColor=#82b366;" parent="OfvR7jmP5WtNh5RsgEb_-19" vertex="1">
          <mxGeometry width="40" height="20" as="geometry" />
        </mxCell>
        <mxCell id="OfvR7jmP5WtNh5RsgEb_-18" value="" style="endArrow=none;html=1;rounded=0;fontFamily=Comic Sans MS;fontSize=11;entryX=0.5;entryY=0;entryDx=0;entryDy=0;exitX=0.5;exitY=1;exitDx=0;exitDy=0;fillColor=#d5e8d4;strokeColor=#82b366;" parent="OfvR7jmP5WtNh5RsgEb_-19" source="OfvR7jmP5WtNh5RsgEb_-17" target="OfvR7jmP5WtNh5RsgEb_-17" edge="1">
          <mxGeometry width="50" height="50" relative="1" as="geometry">
            <mxPoint x="-50" y="90" as="sourcePoint" />
            <mxPoint y="40" as="targetPoint" />
          </mxGeometry>
        </mxCell>
        <mxCell id="OfvR7jmP5WtNh5RsgEb_-21" value="&lt;p style=&quot;line-height: 0%;&quot;&gt;&lt;font face=&quot;Comic Sans MS&quot; style=&quot;font-size: 11px;&quot;&gt;Basket&lt;/font&gt;&lt;/p&gt;&lt;p style=&quot;line-height: 0%;&quot;&gt;&lt;font face=&quot;Comic Sans MS&quot;&gt;&lt;span style=&quot;font-size: 11px;&quot;&gt;embedding&lt;/span&gt;&lt;/font&gt;&lt;/p&gt;" style="text;strokeColor=none;align=center;fillColor=none;html=1;verticalAlign=middle;whiteSpace=wrap;rounded=0;dashed=1;" parent="1" vertex="1">
          <mxGeometry x="38" y="143" width="60" height="30" as="geometry" />
        </mxCell>
        <mxCell id="OfvR7jmP5WtNh5RsgEb_-27" value="" style="endArrow=classic;html=1;rounded=0;fontFamily=Comic Sans MS;fontSize=11;" parent="1" edge="1">
          <mxGeometry width="50" height="50" relative="1" as="geometry">
            <mxPoint x="184" y="129" as="sourcePoint" />
            <mxPoint x="184" y="149" as="targetPoint" />
            <Array as="points" />
          </mxGeometry>
        </mxCell>
        <mxCell id="OfvR7jmP5WtNh5RsgEb_-28" value="" style="group;fillColor=#d5e8d4;strokeColor=#82b366;" parent="1" vertex="1" connectable="0">
          <mxGeometry x="164.5" y="153" width="40" height="20" as="geometry" />
        </mxCell>
        <mxCell id="OfvR7jmP5WtNh5RsgEb_-29" value="" style="rounded=0;whiteSpace=wrap;html=1;fontFamily=Comic Sans MS;fontSize=11;fillColor=#d5e8d4;strokeColor=#82b366;" parent="OfvR7jmP5WtNh5RsgEb_-28" vertex="1">
          <mxGeometry width="40" height="20" as="geometry" />
        </mxCell>
        <mxCell id="OfvR7jmP5WtNh5RsgEb_-30" value="" style="endArrow=none;html=1;rounded=0;fontFamily=Comic Sans MS;fontSize=11;entryX=0.5;entryY=0;entryDx=0;entryDy=0;exitX=0.5;exitY=1;exitDx=0;exitDy=0;fillColor=#d5e8d4;strokeColor=#82b366;" parent="OfvR7jmP5WtNh5RsgEb_-28" source="OfvR7jmP5WtNh5RsgEb_-29" target="OfvR7jmP5WtNh5RsgEb_-29" edge="1">
          <mxGeometry width="50" height="50" relative="1" as="geometry">
            <mxPoint x="-50" y="90" as="sourcePoint" />
            <mxPoint y="40" as="targetPoint" />
          </mxGeometry>
        </mxCell>
        <mxCell id="OfvR7jmP5WtNh5RsgEb_-35" value="" style="endArrow=classic;html=1;rounded=0;fontFamily=Comic Sans MS;fontSize=11;" parent="1" edge="1">
          <mxGeometry width="50" height="50" relative="1" as="geometry">
            <mxPoint x="265" y="129" as="sourcePoint" />
            <mxPoint x="265" y="149" as="targetPoint" />
            <Array as="points" />
          </mxGeometry>
        </mxCell>
        <mxCell id="OfvR7jmP5WtNh5RsgEb_-36" value="" style="group;fillColor=#d5e8d4;strokeColor=#82b366;" parent="1" vertex="1" connectable="0">
          <mxGeometry x="245.5" y="153" width="40" height="20" as="geometry" />
        </mxCell>
        <mxCell id="OfvR7jmP5WtNh5RsgEb_-37" value="" style="rounded=0;whiteSpace=wrap;html=1;fontFamily=Comic Sans MS;fontSize=11;fillColor=#d5e8d4;strokeColor=#82b366;" parent="OfvR7jmP5WtNh5RsgEb_-36" vertex="1">
          <mxGeometry width="40" height="20" as="geometry" />
        </mxCell>
        <mxCell id="OfvR7jmP5WtNh5RsgEb_-38" value="" style="endArrow=none;html=1;rounded=0;fontFamily=Comic Sans MS;fontSize=11;entryX=0.5;entryY=0;entryDx=0;entryDy=0;exitX=0.5;exitY=1;exitDx=0;exitDy=0;fillColor=#d5e8d4;strokeColor=#82b366;" parent="OfvR7jmP5WtNh5RsgEb_-36" source="OfvR7jmP5WtNh5RsgEb_-37" target="OfvR7jmP5WtNh5RsgEb_-37" edge="1">
          <mxGeometry width="50" height="50" relative="1" as="geometry">
            <mxPoint x="-50" y="90" as="sourcePoint" />
            <mxPoint y="40" as="targetPoint" />
          </mxGeometry>
        </mxCell>
        <mxCell id="OfvR7jmP5WtNh5RsgEb_-39" value="" style="group" parent="1" vertex="1" connectable="0">
          <mxGeometry x="114.5" y="48.5" width="25" height="76" as="geometry" />
        </mxCell>
        <mxCell id="OfvR7jmP5WtNh5RsgEb_-8" value="" style="rounded=1;whiteSpace=wrap;html=1;dashed=1;direction=south;" parent="OfvR7jmP5WtNh5RsgEb_-39" vertex="1">
          <mxGeometry width="25" height="76" as="geometry" />
        </mxCell>
        <mxCell id="OfvR7jmP5WtNh5RsgEb_-5" value="" style="ellipse;whiteSpace=wrap;html=1;aspect=fixed;fillColor=#ffe6cc;strokeColor=#d79b00;" parent="OfvR7jmP5WtNh5RsgEb_-39" vertex="1">
          <mxGeometry x="2.5" y="3.5" width="20" height="20" as="geometry" />
        </mxCell>
        <mxCell id="OfvR7jmP5WtNh5RsgEb_-7" value="" style="ellipse;whiteSpace=wrap;html=1;aspect=fixed;fillColor=#e1d5e7;strokeColor=#9673a6;" parent="OfvR7jmP5WtNh5RsgEb_-39" vertex="1">
          <mxGeometry x="2.5" y="51.5" width="20" height="20" as="geometry" />
        </mxCell>
        <mxCell id="OfvR7jmP5WtNh5RsgEb_-6" value="" style="ellipse;whiteSpace=wrap;html=1;aspect=fixed;fillColor=#f8cecc;strokeColor=#b85450;" parent="OfvR7jmP5WtNh5RsgEb_-39" vertex="1">
          <mxGeometry x="2.5" y="27.5" width="20" height="20" as="geometry" />
        </mxCell>
        <mxCell id="OfvR7jmP5WtNh5RsgEb_-40" value="" style="group" parent="1" vertex="1" connectable="0">
          <mxGeometry x="171.5" y="48.5" width="25" height="76" as="geometry" />
        </mxCell>
        <mxCell id="OfvR7jmP5WtNh5RsgEb_-41" value="" style="rounded=1;whiteSpace=wrap;html=1;dashed=1;direction=south;" parent="OfvR7jmP5WtNh5RsgEb_-40" vertex="1">
          <mxGeometry width="25" height="76" as="geometry" />
        </mxCell>
        <mxCell id="OfvR7jmP5WtNh5RsgEb_-42" value="" style="ellipse;whiteSpace=wrap;html=1;aspect=fixed;fillColor=#ffe6cc;strokeColor=#d79b00;" parent="OfvR7jmP5WtNh5RsgEb_-40" vertex="1">
          <mxGeometry x="2.5" y="3.5" width="20" height="20" as="geometry" />
        </mxCell>
        <mxCell id="OfvR7jmP5WtNh5RsgEb_-43" value="" style="ellipse;whiteSpace=wrap;html=1;aspect=fixed;fillColor=#e1d5e7;strokeColor=#9673a6;" parent="OfvR7jmP5WtNh5RsgEb_-40" vertex="1">
          <mxGeometry x="2.5" y="51.5" width="20" height="20" as="geometry" />
        </mxCell>
        <mxCell id="OfvR7jmP5WtNh5RsgEb_-44" value="" style="ellipse;whiteSpace=wrap;html=1;aspect=fixed;fillColor=#f8cecc;strokeColor=#b85450;" parent="OfvR7jmP5WtNh5RsgEb_-40" vertex="1">
          <mxGeometry x="2.5" y="27.5" width="20" height="20" as="geometry" />
        </mxCell>
        <mxCell id="oXSEM-nMxEOC_Y0HvIBm-1" value="" style="group" vertex="1" connectable="0" parent="1">
          <mxGeometry x="252.5" y="48.5" width="25" height="76" as="geometry" />
        </mxCell>
        <mxCell id="oXSEM-nMxEOC_Y0HvIBm-2" value="" style="rounded=1;whiteSpace=wrap;html=1;dashed=1;direction=south;" vertex="1" parent="oXSEM-nMxEOC_Y0HvIBm-1">
          <mxGeometry width="25" height="76" as="geometry" />
        </mxCell>
        <mxCell id="oXSEM-nMxEOC_Y0HvIBm-3" value="" style="ellipse;whiteSpace=wrap;html=1;aspect=fixed;fillColor=#ffe6cc;strokeColor=#d79b00;" vertex="1" parent="oXSEM-nMxEOC_Y0HvIBm-1">
          <mxGeometry x="2.5" y="3.5" width="20" height="20" as="geometry" />
        </mxCell>
        <mxCell id="oXSEM-nMxEOC_Y0HvIBm-4" value="" style="ellipse;whiteSpace=wrap;html=1;aspect=fixed;fillColor=#e1d5e7;strokeColor=#9673a6;" vertex="1" parent="oXSEM-nMxEOC_Y0HvIBm-1">
          <mxGeometry x="2.5" y="51.5" width="20" height="20" as="geometry" />
        </mxCell>
        <mxCell id="oXSEM-nMxEOC_Y0HvIBm-5" value="" style="ellipse;whiteSpace=wrap;html=1;aspect=fixed;fillColor=#f8cecc;strokeColor=#b85450;" vertex="1" parent="oXSEM-nMxEOC_Y0HvIBm-1">
          <mxGeometry x="2.5" y="27.5" width="20" height="20" as="geometry" />
        </mxCell>
        <mxCell id="oXSEM-nMxEOC_Y0HvIBm-7" value="&lt;p style=&quot;line-height: 0%;&quot;&gt;&lt;font face=&quot;Comic Sans MS&quot;&gt;&lt;span style=&quot;font-size: 11px;&quot;&gt;...&lt;/span&gt;&lt;/font&gt;&lt;/p&gt;" style="text;strokeColor=none;align=center;fillColor=none;html=1;verticalAlign=middle;whiteSpace=wrap;rounded=0;dashed=1;" vertex="1" parent="1">
          <mxGeometry x="210.5" y="68" width="30" height="30" as="geometry" />
        </mxCell>
        <mxCell id="oXSEM-nMxEOC_Y0HvIBm-9" value="&lt;p style=&quot;line-height: 0%;&quot;&gt;&lt;font face=&quot;Comic Sans MS&quot;&gt;&lt;span style=&quot;font-size: 11px;&quot;&gt;...&lt;/span&gt;&lt;/font&gt;&lt;/p&gt;" style="text;strokeColor=none;align=center;fillColor=none;html=1;verticalAlign=middle;whiteSpace=wrap;rounded=0;dashed=1;" vertex="1" parent="1">
          <mxGeometry x="209.5" y="141" width="30" height="30" as="geometry" />
        </mxCell>
        <mxCell id="oXSEM-nMxEOC_Y0HvIBm-11" value="" style="rounded=1;whiteSpace=wrap;html=1;fontFamily=Comic Sans MS;fontSize=11;" vertex="1" parent="1">
          <mxGeometry x="104.5" y="198" width="184" height="38" as="geometry" />
        </mxCell>
        <mxCell id="oXSEM-nMxEOC_Y0HvIBm-12" value="&lt;p style=&quot;line-height: 0%;&quot;&gt;&lt;font face=&quot;Comic Sans MS&quot; style=&quot;font-size: 11px;&quot;&gt;RNN&lt;/font&gt;&lt;/p&gt;" style="text;strokeColor=none;align=center;fillColor=none;html=1;verticalAlign=middle;whiteSpace=wrap;rounded=0;dashed=1;" vertex="1" parent="1">
          <mxGeometry x="37" y="199" width="60" height="30" as="geometry" />
        </mxCell>
        <mxCell id="oXSEM-nMxEOC_Y0HvIBm-13" value="RNN&lt;br&gt;Unit" style="rounded=0;whiteSpace=wrap;html=1;fontFamily=Comic Sans MS;fontSize=11;fillColor=#dae8fc;strokeColor=#6c8ebf;" vertex="1" parent="1">
          <mxGeometry x="109" y="202" width="40" height="30" as="geometry" />
        </mxCell>
        <mxCell id="oXSEM-nMxEOC_Y0HvIBm-18" value="RNN&lt;br&gt;Unit" style="rounded=0;whiteSpace=wrap;html=1;fontFamily=Comic Sans MS;fontSize=11;fillColor=#dae8fc;strokeColor=#6c8ebf;" vertex="1" parent="1">
          <mxGeometry x="164.5" y="202" width="40" height="30" as="geometry" />
        </mxCell>
        <mxCell id="oXSEM-nMxEOC_Y0HvIBm-21" value="RNN&lt;br&gt;Unit" style="rounded=0;whiteSpace=wrap;html=1;fontFamily=Comic Sans MS;fontSize=11;fillColor=#dae8fc;strokeColor=#6c8ebf;" vertex="1" parent="1">
          <mxGeometry x="244" y="202" width="40" height="30" as="geometry" />
        </mxCell>
        <mxCell id="oXSEM-nMxEOC_Y0HvIBm-22" value="" style="endArrow=classic;html=1;rounded=0;fontFamily=Comic Sans MS;fontSize=11;" edge="1" parent="1">
          <mxGeometry width="50" height="50" relative="1" as="geometry">
            <mxPoint x="126" y="176" as="sourcePoint" />
            <mxPoint x="126" y="196" as="targetPoint" />
            <Array as="points" />
          </mxGeometry>
        </mxCell>
        <mxCell id="oXSEM-nMxEOC_Y0HvIBm-23" value="" style="endArrow=classic;html=1;rounded=0;fontFamily=Comic Sans MS;fontSize=11;" edge="1" parent="1">
          <mxGeometry width="50" height="50" relative="1" as="geometry">
            <mxPoint x="184" y="176" as="sourcePoint" />
            <mxPoint x="184" y="196" as="targetPoint" />
            <Array as="points" />
          </mxGeometry>
        </mxCell>
        <mxCell id="oXSEM-nMxEOC_Y0HvIBm-29" value="" style="endArrow=classic;html=1;rounded=0;fontFamily=Comic Sans MS;fontSize=11;exitX=1;exitY=0.5;exitDx=0;exitDy=0;" edge="1" parent="1" source="oXSEM-nMxEOC_Y0HvIBm-18">
          <mxGeometry width="50" height="50" relative="1" as="geometry">
            <mxPoint x="210.5" y="220.5" as="sourcePoint" />
            <mxPoint x="216" y="217" as="targetPoint" />
            <Array as="points" />
          </mxGeometry>
        </mxCell>
        <mxCell id="oXSEM-nMxEOC_Y0HvIBm-24" value="" style="endArrow=classic;html=1;rounded=0;fontFamily=Comic Sans MS;fontSize=11;" edge="1" parent="1">
          <mxGeometry width="50" height="50" relative="1" as="geometry">
            <mxPoint x="265" y="176" as="sourcePoint" />
            <mxPoint x="265" y="196" as="targetPoint" />
            <Array as="points" />
          </mxGeometry>
        </mxCell>
        <mxCell id="oXSEM-nMxEOC_Y0HvIBm-27" value="" style="endArrow=classic;html=1;rounded=0;fontFamily=Comic Sans MS;fontSize=11;entryX=0;entryY=0.5;entryDx=0;entryDy=0;exitX=1;exitY=0.5;exitDx=0;exitDy=0;" edge="1" parent="1" source="oXSEM-nMxEOC_Y0HvIBm-13" target="oXSEM-nMxEOC_Y0HvIBm-18">
          <mxGeometry width="50" height="50" relative="1" as="geometry">
            <mxPoint x="150" y="217" as="sourcePoint" />
            <mxPoint x="166" y="218" as="targetPoint" />
            <Array as="points" />
          </mxGeometry>
        </mxCell>
        <mxCell id="oXSEM-nMxEOC_Y0HvIBm-30" value="" style="endArrow=classic;html=1;rounded=0;fontFamily=Comic Sans MS;fontSize=11;entryX=0;entryY=0.5;entryDx=0;entryDy=0;" edge="1" parent="1" target="oXSEM-nMxEOC_Y0HvIBm-21">
          <mxGeometry width="50" height="50" relative="1" as="geometry">
            <mxPoint x="232" y="217" as="sourcePoint" />
            <mxPoint x="250" y="217" as="targetPoint" />
            <Array as="points" />
          </mxGeometry>
        </mxCell>
        <mxCell id="oXSEM-nMxEOC_Y0HvIBm-35" value="&lt;p style=&quot;line-height: 0%;&quot;&gt;&lt;font face=&quot;Comic Sans MS&quot;&gt;&lt;span style=&quot;font-size: 11px;&quot;&gt;...&lt;/span&gt;&lt;/font&gt;&lt;/p&gt;" style="text;strokeColor=none;align=center;fillColor=none;html=1;verticalAlign=middle;whiteSpace=wrap;rounded=0;dashed=1;" vertex="1" parent="1">
          <mxGeometry x="210.5" y="198" width="30" height="30" as="geometry" />
        </mxCell>
        <mxCell id="oXSEM-nMxEOC_Y0HvIBm-43" value="" style="group" vertex="1" connectable="0" parent="1">
          <mxGeometry x="305" y="207" width="40" height="20" as="geometry" />
        </mxCell>
        <mxCell id="oXSEM-nMxEOC_Y0HvIBm-40" value="" style="group;fillColor=#ffe6cc;strokeColor=#d79b00;container=0;" vertex="1" connectable="0" parent="oXSEM-nMxEOC_Y0HvIBm-43">
          <mxGeometry width="40" height="20" as="geometry" />
        </mxCell>
        <mxCell id="oXSEM-nMxEOC_Y0HvIBm-41" value="" style="rounded=0;whiteSpace=wrap;html=1;fontFamily=Comic Sans MS;fontSize=11;fillColor=#b0e3e6;strokeColor=#0e8088;" vertex="1" parent="oXSEM-nMxEOC_Y0HvIBm-43">
          <mxGeometry width="40" height="20" as="geometry" />
        </mxCell>
        <mxCell id="oXSEM-nMxEOC_Y0HvIBm-42" value="" style="endArrow=none;html=1;rounded=0;fontFamily=Comic Sans MS;fontSize=11;entryX=0.5;entryY=0;entryDx=0;entryDy=0;exitX=0.5;exitY=1;exitDx=0;exitDy=0;fillColor=#b0e3e6;strokeColor=#0e8088;" edge="1" parent="oXSEM-nMxEOC_Y0HvIBm-43" source="oXSEM-nMxEOC_Y0HvIBm-41" target="oXSEM-nMxEOC_Y0HvIBm-41">
          <mxGeometry width="50" height="50" relative="1" as="geometry">
            <mxPoint x="-50" y="90" as="sourcePoint" />
            <mxPoint y="40" as="targetPoint" />
          </mxGeometry>
        </mxCell>
        <mxCell id="oXSEM-nMxEOC_Y0HvIBm-45" value="" style="endArrow=classic;html=1;rounded=0;fontFamily=Comic Sans MS;fontSize=11;entryX=0;entryY=0.5;entryDx=0;entryDy=0;exitX=1;exitY=0.5;exitDx=0;exitDy=0;" edge="1" parent="1">
          <mxGeometry width="50" height="50" relative="1" as="geometry">
            <mxPoint x="289" y="217" as="sourcePoint" />
            <mxPoint x="304.5" y="217" as="targetPoint" />
            <Array as="points" />
          </mxGeometry>
        </mxCell>
        <mxCell id="oXSEM-nMxEOC_Y0HvIBm-46" value="&lt;p style=&quot;line-height: 0%;&quot;&gt;&lt;font face=&quot;Comic Sans MS&quot;&gt;&lt;span style=&quot;font-size: 11px;&quot;&gt;User&lt;/span&gt;&lt;/font&gt;&lt;/p&gt;&lt;p style=&quot;line-height: 0%;&quot;&gt;&lt;font face=&quot;Comic Sans MS&quot;&gt;&lt;span style=&quot;font-size: 11px;&quot;&gt;representation&lt;/span&gt;&lt;/font&gt;&lt;/p&gt;" style="text;strokeColor=none;align=center;fillColor=none;html=1;verticalAlign=middle;whiteSpace=wrap;rounded=0;dashed=1;" vertex="1" parent="1">
          <mxGeometry x="286.5" y="229" width="80" height="22" as="geometry" />
        </mxCell>
      </root>
    </mxGraphModel>
  </diagram>
</mxfile>
